<?xml version="1.0" encoding="UTF-8"?>
<!DOCTYPE svg PUBLIC "-//W3C//DTD SVG 1.1//EN" "http://www.w3.org/Graphics/SVG/1.1/DTD/svg11.dtd">
<svg xmlns="http://www.w3.org/2000/svg" version="1.1" width="64px" height="64px" style="shape-rendering:geometricPrecision; text-rendering:geometricPrecision; image-rendering:optimizeQuality; fill-rule:evenodd; clip-rule:evenodd" xmlns:xlink="http://www.w3.org/1999/xlink">
<g><path style="opacity:0.934" fill="#0c111d" d="M 22.5,-0.5 C 28.5,-0.5 34.5,-0.5 40.5,-0.5C 51.8333,3.5 59.5,11.1667 63.5,22.5C 63.5,28.1667 63.5,33.8333 63.5,39.5C 62.0601,43.7133 60.0601,47.7133 57.5,51.5C 56.1667,50.8333 55.1667,49.8333 54.5,48.5C 64.0559,33.0146 62.0559,19.1813 48.5,7C 41.0314,2.92991 33.0314,1.42991 24.5,2.5C 23.2905,2.06795 22.2905,1.40128 21.5,0.5C 22.1667,0.5 22.5,0.166667 22.5,-0.5 Z"/></g>
<g><path style="opacity:0.908" fill="#0a0907" d="M 21.5,0.5 C 22.2905,1.40128 23.2905,2.06795 24.5,2.5C 23.8902,3.39105 23.5569,4.39105 23.5,5.5C 23.5,6.83333 23.5,8.16667 23.5,9.5C 23.5,14.8333 23.5,20.1667 23.5,25.5C 23.1743,33.6841 23.5076,41.6841 24.5,49.5C 30.1667,49.5 35.8333,49.5 41.5,49.5C 42.8333,49.5 44.1667,49.5 45.5,49.5C 47.1667,49.5 48.8333,49.5 50.5,49.5C 51.9587,49.5674 53.2921,49.2341 54.5,48.5C 55.1667,49.8333 56.1667,50.8333 57.5,51.5C 57.6495,52.552 57.4828,53.552 57,54.5C 53.9116,57.0814 51.4116,60.0814 49.5,63.5C 34.5,63.5 19.5,63.5 4.5,63.5C 4.36851,59.7794 5.36851,56.4461 7.5,53.5C 8.74156,51.6112 8.74156,49.6112 7.5,47.5C 8.12395,47.0831 8.45728,46.4164 8.5,45.5C 6.4561,40.7036 5.4561,35.7036 5.5,30.5C 5.90868,25.0309 6.90868,19.6976 8.5,14.5C 8.87988,12.302 8.21321,10.6354 6.5,9.5C 5.98619,7.63363 5.31952,5.80029 4.5,4C 4.75908,2.73869 5.42575,1.73869 6.5,1C 11.4889,0.500738 16.4889,0.334072 21.5,0.5 Z"/></g>
<g><path style="opacity:1" fill="#b28d3d" d="M 24.5,2.5 C 33.0314,1.42991 41.0314,2.92991 48.5,7C 62.0559,19.1813 64.0559,33.0146 54.5,48.5C 53.2921,49.2341 51.9587,49.5674 50.5,49.5C 58.4188,39.6919 59.5854,29.0252 54,17.5C 46.4649,7.2241 36.2982,3.2241 23.5,5.5C 23.5569,4.39105 23.8902,3.39105 24.5,2.5 Z"/></g>
<g><path style="opacity:1" fill="#e7b942" d="M 20.5,31.5 C 17.7418,30.7089 15.2418,30.0422 13,29.5C 12.8283,22.654 12.3283,15.9874 11.5,9.5C 10.8333,8.16667 10.1667,6.83333 9.5,5.5C 12.9619,4.51836 16.6286,4.18503 20.5,4.5C 20.5,13.5 20.5,22.5 20.5,31.5 Z"/></g>
<g><path style="opacity:1" fill="#101721" d="M 23.5,5.5 C 36.2982,3.2241 46.4649,7.2241 54,17.5C 59.5854,29.0252 58.4188,39.6919 50.5,49.5C 48.8333,49.5 47.1667,49.5 45.5,49.5C 49.7519,46.2263 52.4186,41.893 53.5,36.5C 56.2932,19.7584 49.1266,10.0917 32,7.5C 30.2933,7.50848 28.7933,7.84182 27.5,8.5C 26.209,8.26269 25.209,8.59603 24.5,9.5C 24.1667,9.5 23.8333,9.5 23.5,9.5C 23.5,8.16667 23.5,6.83333 23.5,5.5 Z"/></g>
<g><path style="opacity:1" fill="#11a5ac" d="M 27.5,8.5 C 28.8001,10.223 29.4668,12.3897 29.5,15C 29.851,18.7916 28.5176,21.625 25.5,23.5C 24.5067,18.8804 24.1734,14.2137 24.5,9.5C 25.209,8.59603 26.209,8.26269 27.5,8.5 Z"/></g>
<g><path style="opacity:0.934" fill="#0a101d" d="M 6.5,9.5 C 8.21321,10.6354 8.87988,12.302 8.5,14.5C 0.870693,25.155 0.537359,36.155 7.5,47.5C 8.74156,49.6112 8.74156,51.6112 7.5,53.5C 3.77838,49.3847 1.11172,44.7181 -0.5,39.5C -0.5,33.8333 -0.5,28.1667 -0.5,22.5C 1.56074,18.0468 3.89407,13.7134 6.5,9.5 Z"/></g>
<g><path style="opacity:1" fill="#a1813c" d="M 8.5,14.5 C 6.90868,19.6976 5.90868,25.0309 5.5,30.5C 5.4561,35.7036 6.4561,40.7036 8.5,45.5C 8.45728,46.4164 8.12395,47.0831 7.5,47.5C 0.537359,36.155 0.870693,25.155 8.5,14.5 Z"/></g>
<g><path style="opacity:1" fill="#138591" d="M 27.5,8.5 C 28.7933,7.84182 30.2933,7.50848 32,7.5C 49.1266,10.0917 56.2932,19.7584 53.5,36.5C 53.5,35.5 53.5,34.5 53.5,33.5C 50.5525,33.2229 47.7191,33.5562 45,34.5C 42.2439,39.111 41.0772,44.111 41.5,49.5C 35.8333,49.5 30.1667,49.5 24.5,49.5C 24.5,46.8333 24.5,44.1667 24.5,41.5C 28.8691,42.0768 32.8691,41.2435 36.5,39C 36.1667,38.6667 35.8333,38.3333 35.5,38C 38.6606,33.764 42.1606,29.9306 46,26.5C 46.2543,17.4394 42.0876,14.606 33.5,18C 33.7011,23.6377 31.0344,27.1377 25.5,28.5C 24.8243,27.3984 24.1577,26.3984 23.5,25.5C 23.5,20.1667 23.5,14.8333 23.5,9.5C 23.8333,9.5 24.1667,9.5 24.5,9.5C 24.1734,14.2137 24.5067,18.8804 25.5,23.5C 28.5176,21.625 29.851,18.7916 29.5,15C 29.4668,12.3897 28.8001,10.223 27.5,8.5 Z"/></g>
<g><path style="opacity:1" fill="#136270" d="M 24.5,49.5 C 23.5076,41.6841 23.1743,33.6841 23.5,25.5C 24.1577,26.3984 24.8243,27.3984 25.5,28.5C 31.0344,27.1377 33.7011,23.6377 33.5,18C 42.0876,14.606 46.2543,17.4394 46,26.5C 42.1606,29.9306 38.6606,33.764 35.5,38C 35.8333,38.3333 36.1667,38.6667 36.5,39C 32.8691,41.2435 28.8691,42.0768 24.5,41.5C 24.5,44.1667 24.5,46.8333 24.5,49.5 Z"/></g>
<g><path style="opacity:1" fill="#c49c44" d="M 11.5,9.5 C 12.3283,15.9874 12.8283,22.654 13,29.5C 15.2418,30.0422 17.7418,30.7089 20.5,31.5C 20.665,34.8499 20.4983,38.1832 20,41.5C 17.3723,43.1255 15.039,45.1255 13,47.5C 12.8261,42.3165 12.3261,37.3165 11.5,32.5C 11.5,24.8333 11.5,17.1667 11.5,9.5 Z"/></g>
<g><path style="opacity:1" fill="#11b0b7" d="M 53.5,36.5 C 52.4186,41.893 49.7519,46.2263 45.5,49.5C 44.1667,49.5 42.8333,49.5 41.5,49.5C 41.0772,44.111 42.2439,39.111 45,34.5C 47.7191,33.5562 50.5525,33.2229 53.5,33.5C 53.5,34.5 53.5,35.5 53.5,36.5 Z"/></g>
<g><path style="opacity:1" fill="#b28d43" d="M 52.5,53.5 C 46.1579,53.3338 39.8246,53.5005 33.5,54C 32.1387,55.5843 31.472,57.4176 31.5,59.5C 23.9809,59.825 16.6476,59.4916 9.5,58.5C 9.46141,57.2438 9.96141,56.2438 11,55.5C 11.4997,47.8406 11.6664,40.1739 11.5,32.5C 12.3261,37.3165 12.8261,42.3165 13,47.5C 15.039,45.1255 17.3723,43.1255 20,41.5C 20.4983,38.1832 20.665,34.8499 20.5,31.5C 20.5,22.5 20.5,13.5 20.5,4.5C 16.6286,4.18503 12.9619,4.51836 9.5,5.5C 8.95691,5.44001 8.62358,5.10667 8.5,4.5C 12.7828,3.50776 17.1161,3.17443 21.5,3.5C 21.5,19.8333 21.5,36.1667 21.5,52.5C 32.5834,52.1677 42.9167,52.501 52.5,53.5 Z"/></g>
<g><path style="opacity:1" fill="#916d34" d="M 52.5,53.5 C 50.8564,55.4807 49.1897,57.4807 47.5,59.5C 34.1792,60.666 20.8458,60.8327 7.5,60C 8.0442,59.2828 8.71087,58.7828 9.5,58.5C 16.6476,59.4916 23.9809,59.825 31.5,59.5C 31.472,57.4176 32.1387,55.5843 33.5,54C 39.8246,53.5005 46.1579,53.3338 52.5,53.5 Z"/></g>
</svg>
