<?xml version="1.0" standalone="no"?>
<!DOCTYPE svg PUBLIC "-//W3C//DTD SVG 20010904//EN"
 "http://www.w3.org/TR/2001/REC-SVG-20010904/DTD/svg10.dtd">
<svg version="1.0" xmlns="http://www.w3.org/2000/svg"
 width="500.000000pt" height="500.000000pt" viewBox="0 0 500.000000 500.000000"
 preserveAspectRatio="xMidYMid meet">

<g transform="translate(0.000000,500.000000) scale(0.100000,-0.100000)"
fill="#000000" stroke="none">
<path d="M1580 4328 c-1 -13 -2 -48 -4 -78 -2 -30 -6 -154 -10 -275 -4 -121
-11 -270 -17 -332 -5 -62 -8 -118 -7 -125 2 -10 -49 -14 -237 -18 -198 -4
-245 -8 -270 -22 -74 -41 -105 -104 -105 -215 0 -68 4 -85 30 -130 31 -54 80
-89 145 -103 l30 -6 -40 -21 c-89 -47 -163 -157 -185 -274 -11 -59 -12 -61
-35 -168 -8 -41 -17 -75 -18 -76 -1 0 -32 -15 -68 -32 -132 -63 -169 -113
-223 -308 -21 -71 -48 -166 -61 -210 -31 -99 -143 -477 -157 -525 -43 -153
-51 -348 -20 -461 42 -150 133 -245 281 -293 l80 -26 1833 0 1833 1 72 23
c119 40 211 117 254 213 12 27 25 57 30 68 13 27 6 391 -8 435 -7 19 -23 73
-37 120 -14 47 -43 146 -65 220 -163 552 -178 599 -205 635 -36 47 -106 98
-167 119 l-48 17 -19 87 c-11 48 -26 116 -32 151 -23 129 -86 225 -185 282
-42 24 -46 29 -24 29 37 0 122 45 146 78 28 38 43 95 43 163 0 99 -39 173
-110 209 -36 18 -59 20 -270 20 -176 0 -232 3 -235 13 -5 15 -13 188 -20 452
-3 110 -8 242 -11 293 l-6 92 -939 0 -939 0 0 -22z m1851 -148 c7 -129 22
-469 39 -904 6 -138 13 -252 16 -255 3 -3 12 -1 21 5 24 15 224 -29 278 -60
81 -48 188 -191 206 -274 4 -21 12 -61 18 -91 6 -30 9 -56 6 -59 -6 -6 31 -35
71 -55 18 -9 45 -31 61 -49 17 -18 51 -56 77 -84 43 -48 50 -64 117 -270 39
-120 81 -253 94 -294 13 -41 33 -104 45 -140 53 -162 71 -240 77 -331 16 -253
-97 -406 -323 -439 -97 -14 -3346 -13 -3434 1 -209 33 -320 169 -320 394 0
124 7 151 190 720 22 66 49 152 60 190 12 39 26 81 31 95 13 36 144 171 199
206 53 34 71 50 64 57 -7 7 21 139 42 200 23 67 155 206 225 236 27 12 62 24
77 26 15 2 54 10 87 18 44 10 65 11 77 3 9 -5 20 -8 23 -5 5 6 17 236 34 694
6 149 14 343 17 433 l7 162 906 -2 906 -3 6 -125z m-1891 -700 c0 -6 -71 -10
-192 -10 -201 -1 -247 -8 -290 -47 -30 -27 -58 -88 -58 -128 l0 -35 265 7 266
6 -3 -109 -3 -109 -190 0 c-104 0 -207 4 -228 8 -45 10 -105 60 -123 104 -20
47 -17 160 5 208 23 52 71 93 119 100 20 4 44 8 52 10 41 8 380 4 380 -5z
m2370 0 c105 -20 160 -92 160 -210 0 -122 -56 -192 -166 -210 -91 -15 -384
-13 -388 3 -3 6 -7 57 -10 111 l-6 99 269 -6 c210 -5 270 -4 274 6 2 6 -2 33
-10 59 -17 58 -69 113 -120 127 -21 6 -125 11 -231 11 -126 0 -191 3 -187 10
8 13 346 13 415 0z"/>
<path d="M2385 3041 c-33 -10 -80 -26 -105 -35 -39 -15 -90 -17 -397 -15 -393
1 -415 -2 -490 -66 -51 -44 -67 -78 -95 -203 -13 -56 -27 -102 -33 -102 -29 0
-135 -62 -158 -92 -28 -37 -224 -596 -247 -706 -23 -109 1 -218 63 -288 45
-51 87 -75 167 -95 82 -21 2778 -21 2860 0 109 27 175 80 211 167 18 47 21 68
17 156 -4 94 -10 118 -62 268 -31 91 -77 226 -102 300 -55 164 -66 189 -96
217 -23 22 -124 73 -144 73 -5 0 -21 46 -33 103 -28 123 -48 165 -98 206 -70
58 -93 61 -453 61 l-327 0 -94 32 c-121 41 -287 49 -384 19z m-271 -163 c-71
-74 -100 -120 -130 -202 l-22 -61 -207 0 -207 0 1 125 c1 69 4 135 7 146 11
44 42 49 334 54 151 3 277 4 279 3 2 -2 -23 -31 -55 -65z m1355 47 c6 -6 13
-67 16 -135 3 -69 8 -137 10 -153 l5 -27 -186 2 -186 3 -23 64 c-27 75 -76
148 -140 211 -25 24 -45 47 -45 50 0 10 539 -5 549 -15z m136 -136 c10 -29 15
-72 13 -111 l-3 -63 -42 -3 -43 -3 0 39 c0 21 -3 88 -6 148 l-7 109 36 -34
c21 -20 43 -55 52 -82z m-2095 -49 c-5 -122 -6 -125 -28 -128 -24 -4 -24 -4
-20 95 2 84 6 103 27 131 13 18 24 32 25 30 0 -2 -1 -59 -4 -128z m1154 50
c60 -23 133 -82 165 -134 12 -18 21 -36 21 -40 0 -3 -47 -6 -104 -6 l-105 0
-41 75 c-23 41 -45 77 -50 80 -5 3 -30 -31 -55 -75 l-47 -80 -104 0 c-57 0
-104 4 -104 9 0 16 77 108 112 132 82 59 214 75 312 39z m-1040 -337 c27 -10
70 -36 94 -59 45 -40 46 -41 46 -107 l1 -67 40 0 c22 0 49 -3 60 -6 19 -5 20
-1 17 64 -3 63 -1 72 24 101 56 67 186 108 309 98 178 -15 280 -97 267 -213
l-5 -44 40 0 c22 0 56 -3 74 -6 28 -4 31 -3 17 6 -14 8 -18 25 -18 70 0 56 2
62 39 99 60 60 134 84 261 85 126 1 191 -19 258 -79 l44 -40 -1 -70 0 -70 64
0 c50 -1 62 2 54 12 -15 17 -5 108 15 138 50 76 187 123 322 112 128 -11 232
-66 255 -134 14 -43 7 -114 -15 -147 -36 -56 -168 -106 -276 -106 -50 0 -60 4
-86 31 -30 32 -132 89 -159 89 -9 0 16 -17 56 -37 86 -45 119 -85 119 -147 0
-23 -6 -52 -13 -66 l-13 -25 80 -2 c101 -2 184 -31 240 -84 40 -36 41 -39 41
-103 0 -83 -19 -110 -110 -156 -68 -34 -72 -35 -191 -35 -119 0 -122 1 -190
35 -92 47 -118 85 -109 160 9 71 34 101 119 145 38 19 60 35 50 35 -30 -1 -97
-35 -137 -70 -35 -30 -41 -32 -96 -28 -47 3 -66 10 -94 34 -64 54 -72 59 -96
56 -20 -3 -16 -7 25 -27 27 -12 64 -38 82 -57 30 -32 33 -41 33 -98 1 -59 -1
-65 -37 -101 -59 -61 -127 -83 -259 -83 -129 -1 -190 16 -253 69 -102 88 -72
205 71 275 34 16 54 30 45 30 -28 0 -102 -37 -136 -69 -28 -27 -41 -31 -86
-31 -46 0 -59 5 -106 40 -29 22 -60 40 -67 40 -8 0 -12 3 -10 8 3 4 -11 8 -32
9 l-36 1 37 -13 c47 -17 122 -68 143 -97 22 -32 19 -116 -5 -155 -46 -77 -167
-119 -318 -111 -81 5 -102 10 -160 39 -82 42 -112 82 -112 150 0 42 5 55 37
90 20 22 62 54 92 69 31 16 49 29 41 29 -26 1 -95 -35 -132 -68 -49 -43 -117
-44 -175 -2 -51 37 -90 56 -128 65 -18 3 -6 -5 30 -23 33 -15 75 -44 92 -62
29 -30 33 -42 35 -96 3 -60 2 -63 -36 -102 -66 -67 -121 -86 -261 -86 -112 0
-124 2 -183 29 -34 16 -76 44 -92 63 -26 29 -30 41 -30 95 0 58 2 62 43 103
62 61 137 87 259 88 l96 1 -14 27 c-42 81 12 184 115 220 18 6 30 13 27 16
-11 11 -128 -52 -148 -80 -21 -29 -22 -29 -89 -23 -93 8 -173 40 -220 87 -36
36 -39 43 -39 98 0 44 5 66 23 91 25 38 111 86 177 100 65 13 207 4 264 -17z"/>
<path d="M1680 2210 c-13 -9 -13 -10 0 -10 8 0 22 5 30 10 13 9 13 10 0 10 -8
0 -22 -5 -30 -10z"/>
<path d="M2400 2210 c-18 -12 -2 -12 25 0 13 6 15 9 5 9 -8 0 -22 -4 -30 -9z"/>
<path d="M3110 2210 c-13 -8 -13 -10 2 -10 9 0 20 5 23 10 8 13 -5 13 -25 0z"/>
<path d="M1987 2179 c35 -16 76 -46 93 -67 28 -33 31 -42 27 -92 -2 -30 -6
-62 -10 -70 -6 -13 5 -15 66 -17 l74 -1 -14 39 c-27 81 6 150 96 200 25 14 28
18 11 13 -43 -11 -77 -32 -103 -64 -20 -24 -34 -30 -64 -30 -31 0 -45 7 -72
36 -19 20 -59 47 -89 60 -78 34 -89 29 -15 -7z"/>
<path d="M2695 2182 c112 -54 154 -123 124 -207 l-15 -40 74 -1 c64 -1 72 1
65 15 -4 9 -8 44 -8 78 0 55 3 65 30 93 16 17 52 42 80 56 27 13 39 22 25 18
-49 -13 -117 -53 -134 -78 -26 -41 -82 -36 -130 10 -20 19 -61 46 -91 60 -77
34 -93 30 -20 -4z"/>
<path d="M1054 2578 l-29 -33 35 30 c19 17 37 31 39 33 2 1 0 2 -5 2 -6 0 -23
-15 -40 -32z"/>
<path d="M3980 2575 c13 -14 26 -25 28 -25 3 0 -5 11 -18 25 -13 14 -26 25
-28 25 -3 0 5 -11 18 -25z"/>
<path d="M641 1434 c0 -11 3 -14 6 -6 3 7 2 16 -1 19 -3 4 -6 -2 -5 -13z"/>
<path d="M4391 1434 c0 -11 3 -14 6 -6 3 7 2 16 -1 19 -3 4 -6 -2 -5 -13z"/>
<path d="M4381 1384 c0 -11 3 -14 6 -6 3 7 2 16 -1 19 -3 4 -6 -2 -5 -13z"/>
<path d="M576 1240 c8 -49 46 -129 78 -167 41 -49 119 -83 201 -88 39 -2 57
-2 40 1 -136 19 -210 54 -255 120 -13 20 -35 67 -47 103 -13 36 -20 50 -17 31z"/>
<path d="M4425 1150 c-20 -45 -91 -115 -133 -131 -15 -6 -54 -17 -87 -25 l-60
-14 54 6 c68 7 152 45 186 86 29 34 69 108 62 114 -2 2 -12 -14 -22 -36z"/>
<path d="M4475 1069 c-4 -6 -5 -12 -2 -15 2 -3 7 2 10 11 7 17 1 20 -8 4z"/>
<path d="M577 1018 c19 -34 96 -98 116 -98 6 0 -10 13 -34 29 -25 16 -56 45
-68 65 -28 45 -40 48 -14 4z"/>
<path d="M4460 1031 c0 -5 -18 -27 -41 -51 -22 -23 -32 -37 -21 -31 35 19 88
91 67 91 -3 0 -5 -4 -5 -9z"/>
<path d="M4320 920 c-8 -5 -10 -10 -5 -10 6 0 17 5 25 10 8 5 11 10 5 10 -5 0
-17 -5 -25 -10z"/>
<path d="M745 905 c33 -11 349 -13 1775 -13 954 0 1745 3 1758 6 13 4 -766 7
-1730 7 -964 0 -1773 3 -1798 7 l-45 6 40 -13z"/>
<path d="M1152 3145 c0 -16 2 -22 5 -12 2 9 2 23 0 30 -3 6 -5 -1 -5 -18z"/>
</g>
</svg>
